<?xml version="1.0" encoding="UTF-8" standalone="no" ?>
<!DOCTYPE svg PUBLIC "-//W3C//DTD SVG 1.1//EN" "http://www.w3.org/Graphics/SVG/1.1/DTD/svg11.dtd">
<svg xmlns="http://www.w3.org/2000/svg" xmlns:xlink="http://www.w3.org/1999/xlink" version="1.1" width="1280" height="1024" viewBox="0 0 1280 1024" xml:space="preserve">
<desc>Created with Fabric.js 5.3.0</desc>
<defs>
</defs>
<g transform="matrix(1 0 0 1 640 512)" id="background-logo"  >
<rect style="stroke: none; stroke-width: 0; stroke-dasharray: none; stroke-linecap: butt; stroke-dashoffset: 0; stroke-linejoin: miter; stroke-miterlimit: 4; fill: rgb(255,255,255); fill-opacity: 0; fill-rule: nonzero; opacity: 1;"  paint-order="stroke"  x="-640" y="-512" rx="0" ry="0" width="1280" height="1024" />
</g>
<g transform="matrix(1.9211538461538462 0 0 1.9211538461538462 640 416.86747163032607)" id="logo-logo"  >
<g style=""  paint-order="stroke"   >
		<g transform="matrix(1.9599484611507747 0 0 -1.9599484611507743 -9.401088788755771 -58.96799614461449)"  >
<path style="stroke: none; stroke-width: 1; stroke-dasharray: none; stroke-linecap: butt; stroke-dashoffset: 0; stroke-linejoin: miter; stroke-miterlimit: 4; fill: rgb(213,104,32); fill-rule: nonzero; opacity: 1;"  paint-order="stroke"  transform=" translate(-4.6695, -2.6705034532549714)" d="M 0 0 C 3.216 -0.061 5.899 2.069 10.249 4.86 C 8.963 5.183 7.683 5.337 6.446 5.337 C 2.211 5.332 -1.441 3.553 -3.318 0.594 C -2.054 0.172 -0.976 0 0 0 M -5.06 -1.59 C -5.287999999999999 -1.5030000000000001 -5.497999999999999 -1.4140000000000001 -5.696 -1.3290000000000002 L -6.919 -0.8090000000000002 L -6.396 0.4109999999999998 C -4.294 5.282 0.852 7.992 6.446 7.987 C 8.656 7.983 10.952 7.567 13.201 6.69 C 13.43 6.601 13.642 6.511 13.835 6.429 L 16.258 5.4 L 13.989 4.068 C 8.458 0.879 5.231 -2.576 0 -2.646 C -1.555 -2.646 -3.216 -2.3089999999999997 -5.06 -1.5899999999999999" stroke-linecap="round" />
</g>
		<g transform="matrix(1.9599484611507747 0 0 -1.9599484611507743 -42.27412835856097 -69.1179744721741)"  >
<path style="stroke: none; stroke-width: 1; stroke-dasharray: none; stroke-linecap: butt; stroke-dashoffset: 0; stroke-linejoin: miter; stroke-miterlimit: 4; fill: rgb(213,104,32); fill-rule: nonzero; opacity: 1;"  paint-order="stroke"  transform=" translate(-2.319, -0.002000000000000668)" d="M 0 0 C 0.002 -1.277 1.038 -2.315 2.32 -2.318 C 3.6 -2.315 4.635 -1.28 4.638 0 C 4.635 1.283 3.6 2.32 2.32 2.32 C 1.038 2.32 0.002 1.283 0 0 M -2.649 0 C -2.647 2.747 -0.424 4.967 2.32 4.969 C 5.064 4.967 7.285 2.744 7.287 0 L 7.285 0 C 7.285 -2.742 5.064 -4.965 2.3200000000000003 -4.965 C -0.42399999999999993 -4.965 -2.6469999999999994 -2.742 -2.649 0" stroke-linecap="round" />
</g>
		<g transform="matrix(1.9599484611507747 0 0 -1.9599484611507743 -56.092156999366296 -37.19527162884333)"  >
<path style="stroke: none; stroke-width: 1; stroke-dasharray: none; stroke-linecap: butt; stroke-dashoffset: 0; stroke-linejoin: miter; stroke-miterlimit: 4; fill: rgb(213,104,32); fill-rule: nonzero; opacity: 1;"  paint-order="stroke"  transform=" translate(-13.948, -7.834578426811517)" d="M 0 0 C 4.084 2.335 5.16 4.581 6.542 7.281 C 7.874 9.963999999999999 9.508 13.097 14.147 15.677 C 17.393 17.523 20.109 17.988 22.472 17.978 C 24.451 17.972 26.153000000000002 17.694000000000003 27.858 17.700000000000003 L 27.896 17.700000000000003 L 27.896 15.051 L 27.858 15.051 C 25.879 15.057 24.177 15.334 22.472 15.33 C 20.433 15.321 18.348 14.997 15.446 13.369 C 11.365 11.036 10.289 8.788 8.907 6.09 C 7.575 3.406 5.941 0.271 1.302 -2.309 Z" stroke-linecap="round" />
</g>
		<g transform="matrix(1.9599484611507747 0 0 -1.9599484611507743 -99.31411643373977 -27.12294277448092)"  >
<path style="stroke: none; stroke-width: 1; stroke-dasharray: none; stroke-linecap: butt; stroke-dashoffset: 0; stroke-linejoin: miter; stroke-miterlimit: 4; fill: rgb(213,104,32); fill-rule: nonzero; opacity: 1;"  paint-order="stroke"  transform=" translate(-8.829, 2.8040000000000003)" d="M 0 0 L 0.291 1.291 z M 13.272 -6.16 C 14.26 -6.16 15.226 -6.0120000000000005 16.151 -5.707 C 14.458 -3.046 12.949 -2.2609999999999997 10.648 -1.681 C 8.72 -1.22 6.217 -1.09 3.031 -0.578 C 5.774 -4.165 9.69 -6.171 13.272 -6.16 M 13.272 -8.808 C 7.948 -8.794 2.566 -5.461 -0.552 0.059 C -0.675 0.277 -0.786 0.486 -0.887 0.688 L -2.178 3.2 L 0.579 2.583 C 4.995 1.587 8.288 1.58 11.251 0.897 C 14.229 0.247 16.845 -1.3960000000000001 18.887 -5.114999999999999 C 19.007 -5.327999999999999 19.116 -5.533999999999999 19.216 -5.726999999999999 L 19.836000000000002 -6.904999999999999 L 18.654000000000003 -7.515999999999999 C 16.967 -8.392 15.133 -8.808 13.29 -8.808 Z" stroke-linecap="round" />
</g>
		<g transform="matrix(1.9599484611507747 0 0 -1.9599484611507743 -72.23115660786618 -55.29034208390931)"  >
<path style="stroke: none; stroke-width: 1; stroke-dasharray: none; stroke-linecap: butt; stroke-dashoffset: 0; stroke-linejoin: miter; stroke-miterlimit: 4; fill: rgb(213,104,32); fill-rule: nonzero; opacity: 1;"  paint-order="stroke"  transform=" translate(3.074, -3.0880000000000005)" d="M 0 0 C 1.524 0.003 2.972 0.323 4.272 0.979 C 1.355 4.376 -2.592 6.184 -6.147 6.176 C -7.672 6.174 -9.119 5.853 -10.417 5.197 C -7.5 1.798 -3.556 -0.005 0 0 M -13.032 4.215 C -13.186 4.413 -13.322 4.601 -13.447 4.771 L -14.226999999999999 5.843999999999999 L -13.153999999999998 6.6209999999999996 C -11.089999999999998 8.116999999999999 -8.640999999999998 8.823 -6.1469999999999985 8.823 C -1.436 8.815 3.465 6.36 6.89 1.958 C 7.036 1.768 7.175 1.581 7.308 1.399 L 8.079 0.326 L 7.009 -0.448 C 4.942 -1.941 2.496 -2.647 0 -2.647 C -4.708 -2.639 -9.61 -0.18399999999999972 -13.032 4.215" stroke-linecap="round" />
</g>
		<g transform="matrix(1.9599484611507747 0 0 -1.9599484611507743 -64.28807347936038 -73.87614135130985)"  >
<path style="stroke: none; stroke-width: 1; stroke-dasharray: none; stroke-linecap: butt; stroke-dashoffset: 0; stroke-linejoin: miter; stroke-miterlimit: 4; fill: rgb(213,104,32); fill-rule: nonzero; opacity: 1;"  paint-order="stroke"  transform=" translate(1.9315, 0)" d="M 0 0 C 0 -1.067 -0.865 -1.932 -1.933 -1.932 C -3 -1.932 -3.863 -1.067 -3.863 0 C -3.863 1.067 -3 1.932 -1.933 1.932 C -0.865 1.932 0 1.067 0 0" stroke-linecap="round" />
</g>
		<g transform="matrix(1.9599484611507747 0 0 -1.9599484611507743 -57.84392494716576 -20.998495823077008)"  >
<path style="stroke: none; stroke-width: 1; stroke-dasharray: none; stroke-linecap: butt; stroke-dashoffset: 0; stroke-linejoin: miter; stroke-miterlimit: 4; fill: rgb(213,104,32); fill-rule: nonzero; opacity: 1;"  paint-order="stroke"  transform=" translate(-2.201117340648333, -3.3514999999999997)" d="M 0 0 C 0 -1.581 0.34 -3.077 1.037 -4.412 C 3.896 -1.843 4.347 0.282 4.4 3.587 C 4.402 5.264 4.228 7.201 4.12 9.457 C 1.413 6.658 -0.007 3.174 0 0 M 0.718 -6.384 L 1.779 -5.5920000000000005 z M -0.34099999999999997 -7.176 C -1.911 -5.078 -2.651 -2.5629999999999997 -2.6479999999999997 0 C -2.643 4.648 -0.2669999999999999 9.495 4.021 12.938 C 4.212 13.09 4.397 13.226 4.563 13.352 L 6.667 14.946 L 6.686 12.307 C 6.708 8.954 7.045 6.169 7.048 3.587 C 7.105 -0.264 6.093 -3.867 2.06 -7.021 C 1.869 -7.176 1.687 -7.312 1.516 -7.44 L 0.454 -8.243 Z" stroke-linecap="round" />
</g>
		<g transform="matrix(1.9599484611507747 0 0 -1.9599484611507743 -81.04523344898769 2.031277223047965)"  >
<path style="stroke: none; stroke-width: 1; stroke-dasharray: none; stroke-linecap: butt; stroke-dashoffset: 0; stroke-linejoin: miter; stroke-miterlimit: 4; fill: rgb(213,104,32); fill-rule: nonzero; opacity: 1;"  paint-order="stroke"  transform=" translate(-0.004503767201005537, -4.967506817571498)" d="M 0 0 C -0.843 0 -1.701 0.218 -2.478 0.665 C -4.07 1.588 -4.963 3.2600000000000002 -4.963 4.971 C -4.963 5.813 -4.748 6.675 -4.296 7.452 C -3.3760000000000003 9.042 -1.7040000000000002 9.937 0.008999999999999453 9.935 C 0.847 9.937 1.71 9.719 2.489 9.268 L 1.828 8.122 L 1.166 6.976 C 0.795 7.19 0.403 7.286 0.009 7.288 C -0.794 7.286 -1.573 6.875 -2.006 6.123 C -2.216 5.761 -2.314 5.369 -2.314 4.971 C -2.314 4.168 -1.9 3.39 -1.154 2.957 C -0.789 2.747 -0.394 2.649 0 2.646 C 0.806 2.649 1.585 3.063 2.012 3.804 C 2.228 4.18 2.326 4.571 2.326 4.963 C 2.323 5.769 1.912 6.545 1.166 6.976 L 1.828 8.122 L 2.489 9.268 C 4.082 8.35 4.975 6.675 4.972 4.963 C 4.972 4.122 4.754 3.265 4.308 2.482 C 3.389 0.895 1.718 0 0.009 0 Z" stroke-linecap="round" />
</g>
		<g transform="matrix(1.9599484611507747 0 0 -1.9599484611507743 -64.45645464332921 28.979601951729364)"  >
<path style="stroke: none; stroke-width: 1; stroke-dasharray: none; stroke-linecap: butt; stroke-dashoffset: 0; stroke-linejoin: miter; stroke-miterlimit: 4; fill: rgb(213,104,32); fill-rule: nonzero; opacity: 1;"  paint-order="stroke"  transform=" translate(1.929511016185537, -16.511)" d="M 0 0 L 0 0.235 C -0.027 4.785 -1.417 6.8180000000000005 -3.038 9.324 C -4.669 11.78 -6.534 14.708 -6.506 19.862000000000002 C -6.506 19.953000000000003 -6.506 20.038 -6.503 20.105 C -6.462 27.037 -3.198 29.82 -1.3810000000000002 33.022 L -1.3810000000000002 33.02 L 0.914 31.701 C -1.315 27.864 -3.763 26.15 -3.856 20.068 C -3.859 19.991 -3.859 19.923 -3.859 19.862 C -3.832 15.313 -2.445 13.281 -0.822 10.775 C 0.807 8.319 2.674 5.392 2.647 0.235 L 2.647 0 Z" stroke-linecap="round" />
</g>
		<g transform="matrix(1.9599484611507747 0 0 -1.9599484611507743 -74.81182074666344 71.57491538170922)"  >
<path style="stroke: none; stroke-width: 1; stroke-dasharray: none; stroke-linecap: butt; stroke-dashoffset: 0; stroke-linejoin: miter; stroke-miterlimit: 4; fill: rgb(213,104,32); fill-rule: nonzero; opacity: 1;"  paint-order="stroke"  transform=" translate(0.7140000000000004, 1.656474243524908)" d="M 0 0 C -1.348 -1.438 -2.702 -3.521 -4.714 -5.997 C 1.008 -5.249 5.389 -1.592 6.294 2.803 C 3.105 2.659 1.672 1.739 0 0 M -6.863 -8.782 L -7.065 -8.782 C -7.309 -8.78 -7.541 -8.772 -7.768000000000001 -8.761 L -10.595 -8.625 L -8.679 -6.542 C -5.639 -3.2439999999999998 -3.9860000000000007 -0.4169999999999998 -1.9370000000000003 1.8040000000000003 C 0.08699999999999974 4.047000000000001 2.768 5.514 6.925999999999999 5.468 C 7.028 5.468 7.103999999999999 5.465 7.14 5.462 C 7.382 5.462 7.617999999999999 5.455 7.8389999999999995 5.444999999999999 L 9.167 5.392 L 9.106 4.061 C 8.727 -3.298 1.581 -8.782 -6.856 -8.782 Z" stroke-linecap="round" />
</g>
		<g transform="matrix(1.9599484611507747 0 0 -1.9599484611507743 -84.045725931683 34.88786658786833)"  >
<path style="stroke: none; stroke-width: 1; stroke-dasharray: none; stroke-linecap: butt; stroke-dashoffset: 0; stroke-linejoin: miter; stroke-miterlimit: 4; fill: rgb(213,104,32); fill-rule: nonzero; opacity: 1;"  paint-order="stroke"  transform=" translate(-5.5015, -5.306)" d="M 0 0 C 6.304 1.187 10.751 5.787 11.003 10.613 C 4.7 9.428 0.25 4.825 0 0 M -1.283 -1.52 L 0.03600000000000003 -1.377 z M -2.597 -1.659 C -2.641 -1.264 -2.66 -0.873 -2.66 -0.494 C -2.619 6.41 3.4829999999999997 12.27 11.461 13.371 C 11.696 13.401 11.931000000000001 13.429 12.16 13.451 L 13.472 13.581000000000001 L 13.603 12.267000000000001 C 13.644 11.882000000000001 13.663 11.497000000000002 13.663 11.109000000000002 C 13.622 4.206 7.523 -1.656 -0.456 -2.755 C -0.702 -2.79 -0.933 -2.813 -1.146 -2.834 L -2.458 -2.9690000000000003 z" stroke-linecap="round" />
</g>
		<g transform="matrix(1.9599484611507747 0 0 -1.9599484611507743 -100.81427039690135 -1.1301447325448635)"  >
<path style="stroke: none; stroke-width: 1; stroke-dasharray: none; stroke-linecap: butt; stroke-dashoffset: 0; stroke-linejoin: miter; stroke-miterlimit: 4; fill: rgb(213,104,32); fill-rule: nonzero; opacity: 1;"  paint-order="stroke"  transform=" translate(-0.0034951983447908397, -3.8735196177839177)" d="M 0 0 C -0.656 0 -1.323 0.17 -1.936 0.515 C -3.174 1.233 -3.8739999999999997 2.537 -3.871 3.874 C -3.871 4.527 -3.705 5.204000000000001 -3.351 5.809 C -2.635 7.047000000000001 -1.3319999999999999 7.75 0.008000000000000007 7.747 C 0.662 7.75 1.333 7.581 1.943 7.227 L 1.279 6.081 L 0.618 4.935 C 0.417 5.049 0.215 5.098 0.008 5.101 C -0.419 5.098 -0.828 4.883 -1.062 4.478 C -1.17 4.287 -1.222 4.085 -1.222 3.874 C -1.22 3.446 -1.004 3.035 -0.618 2.812 C -0.419 2.7 -0.21 2.648 0 2.646 C 0.43 2.648 0.838 2.864 1.064 3.255 C 1.179 3.457 1.23 3.664 1.23 3.871 C 1.228 4.298 1.012 4.707 0.618 4.935 L 1.279 6.081 L 1.943 7.227 C 3.182 6.511 3.878 5.207 3.878 3.871 C 3.878 3.215 3.707 2.542 3.359 1.936 C 2.642 0.694 1.336 0 0.008 0 Z" stroke-linecap="round" />
</g>
		<g transform="matrix(1.9599484611507747 0 0 -1.9599484611507743 -96.17261491668401 18.720461672430872)"  >
<path style="stroke: none; stroke-width: 1; stroke-dasharray: none; stroke-linecap: butt; stroke-dashoffset: 0; stroke-linejoin: miter; stroke-miterlimit: 4; fill: rgb(213,104,32); fill-rule: nonzero; opacity: 1;"  paint-order="stroke"  transform=" translate(0.9656509560964208, 1.6736071153652168)" d="M 0 0 C 0.924 -0.534 1.241 -1.716 0.707 -2.64 C 0.174 -3.564 -1.007 -3.88 -1.931 -3.346 C -2.855 -2.812 -3.172 -1.632 -2.639 -0.709 C -2.105 0.217 -0.924 0.532 0 0" stroke-linecap="round" />
</g>
		<g transform="matrix(1.9599484611507747 0 0 -1.9599484611507743 -45.8418225423938 37.48519028858533)"  >
<path style="stroke: none; stroke-width: 1; stroke-dasharray: none; stroke-linecap: butt; stroke-dashoffset: 0; stroke-linejoin: miter; stroke-miterlimit: 4; fill: rgb(213,104,32); fill-rule: nonzero; opacity: 1;"  paint-order="stroke"  transform=" translate(5.474500000000001, -5.955500000000001)" d="M 0 0 C -0.647 3.101 -1.875 4.592 -3.84 6.021 C -5.499 7.202 -7.761 8.208 -10.473 9.605 C -8.869 3.992 -4.502 0.168 0 0 M -13.536 11.259 C -13.574 11.505 -13.599 11.73 -13.625 11.927 L -13.97 14.565 L -11.659 13.251 C -8.014 11.175 -4.882 9.985 -2.312 8.182 C 0.274 6.398 2.16 3.784 2.768 -0.42 C 2.806 -0.663 2.831 -0.89 2.858 -1.1 L 1.543 -1.263 L 2.858 -1.1 L 3.021 -2.428 L 1.69 -2.577 C 1.251 -2.627 0.812 -2.654 0.37 -2.654 C -6.464 -2.613 -12.325 3.361 -13.536 11.259" stroke-linecap="round" />
</g>
		<g transform="matrix(1.9599484611507747 0 0 -1.9599484611507743 -38.810125286342554 71.17866100279338)"  >
<path style="stroke: none; stroke-width: 1; stroke-dasharray: none; stroke-linecap: butt; stroke-dashoffset: 0; stroke-linejoin: miter; stroke-miterlimit: 4; fill: rgb(213,104,32); fill-rule: nonzero; opacity: 1;"  paint-order="stroke"  transform=" translate(-1.1629949804703115, 2.006998325754507)" d="M 0 0 C -0.745 -0.428 -1.155 -1.204 -1.157 -2.011 C -1.157 -2.4010000000000002 -1.059 -2.797 -0.847 -3.1660000000000004 C -0.417 -3.9080000000000004 0.363 -4.327 1.1669999999999998 -4.327 C 1.5629999999999997 -4.327 1.956 -4.228 2.319 -4.019 C 3.068 -3.5860000000000003 3.48 -2.806 3.4829999999999997 -2.0020000000000002 C 3.4829999999999997 -1.6050000000000002 3.385 -1.2160000000000002 3.1719999999999997 -0.8470000000000002 C 2.74 -0.099 1.964 0.312 1.159 0.313 C 0.768 0.313 0.372 0.216 0.003 0.004 L -0.658 1.147 z M -3.138 -4.49 C -3.589 -3.712 -3.804 -2.853 -3.804 -2.011 C -3.808 -0.29800000000000004 -2.915 1.375 -1.3209999999999997 2.293 L -1.322 2.294 C -0.543 2.743 0.314 2.962 1.159 2.962 C 2.868 2.964 4.543 2.07 5.466 0.479 C 5.914 -0.3 6.13 -1.161 6.13 -2.002 C 6.132 -3.715 5.236 -5.386 3.647 -6.311 C 2.868 -6.76 2.008 -6.976 1.167 -6.976 C -0.548 -6.976 -2.2199999999999998 -6.08 -3.138 -4.49" stroke-linecap="round" />
</g>
		<g transform="matrix(1.9599484611507747 0 0 -1.9599484611507743 -4.654681600386937 66.88167327800141)"  >
<path style="stroke: none; stroke-width: 1; stroke-dasharray: none; stroke-linecap: butt; stroke-dashoffset: 0; stroke-linejoin: miter; stroke-miterlimit: 4; fill: rgb(213,104,32); fill-rule: nonzero; opacity: 1;"  paint-order="stroke"  transform=" translate(6.587999999999999, -6.202)" d="M 0 0 C -1.445 0 -2.911 -0.174 -4.561 -0.176 C -7.022 -0.187 -9.866 0.268 -13.276 2.2969999999999997 C -19.259 5.7989999999999995 -20.037 10.018 -21.9 13.190999999999999 L -19.610999999999997 14.518999999999998 C -17.400999999999996 10.669999999999998 -17.141 7.693999999999998 -11.925999999999998 4.576999999999998 C -8.88 2.791 -6.727 2.481 -4.561 2.472 C -3.114 2.469 -1.649 2.644 0 2.646 C 2.464 2.658 5.309 2.199 8.724 0.163 L 7.374 -2.115 C 4.319 -0.323 2.17 -0.012 0 0" stroke-linecap="round" />
</g>
		<g transform="matrix(1.9599484611507747 0 0 -1.9599484611507743 25.92245364533278 100.54692401580354)"  >
<path style="stroke: none; stroke-width: 1; stroke-dasharray: none; stroke-linecap: butt; stroke-dashoffset: 0; stroke-linejoin: miter; stroke-miterlimit: 4; fill: rgb(213,104,32); fill-rule: nonzero; opacity: 1;"  paint-order="stroke"  transform=" translate(-2.2424894401849094, 4.1465)" d="M 0 0 C -0.06 -2.546 1.57 -5.288 3.287 -9.793 C 4.094 -7.855 4.483 -5.868 4.48 -3.984 C 4.477 -0.682 3.306 2.244 1.17 4.145 C 0.304 2.5 0.003 1.215 0 0 M 3.044 -13.098 L 4.309 -12.7 Z M 1.78 -13.494 C -0.044 -7.538 -2.575 -4.339 -2.646 0 C -2.651 1.935 -2.049 3.949 -0.708 6.207 C -0.583 6.423 -0.45599999999999996 6.624 -0.33899999999999997 6.808 L 0.372 7.924 L 1.489 7.212 C 5.22 4.828 7.136 0.558 7.131 -3.984 C 7.128 -7.042 6.276 -10.256 4.524 -13.218 C 4.401 -13.429 4.279 -13.622 4.161 -13.806 L 2.6309999999999993 -16.217 z" stroke-linecap="round" />
</g>
		<g transform="matrix(1.9599484611507747 0 0 -1.9599484611507743 -11.857703801456523 90.21348774407846)"  >
<path style="stroke: none; stroke-width: 1; stroke-dasharray: none; stroke-linecap: butt; stroke-dashoffset: 0; stroke-linejoin: miter; stroke-miterlimit: 4; fill: rgb(213,104,32); fill-rule: nonzero; opacity: 1;"  paint-order="stroke"  transform=" translate(-2.753992034742407, 2.1965000000000003)" d="M 0 0 C 0.005 -4.139 1.719 -7.718 4.598 -9.606 C 5.2139999999999995 -7.852 5.506 -6.079 5.506 -4.383 C 5.5 -0.242 3.786 3.339 0.909 5.224 C 0.291 3.466 0 1.694 0 0 M 5.274 -11.481 L 5.816 -10.272 z M 4.733 -12.69 C -0.03000000000000025 -10.548 -2.6560000000000006 -5.484999999999999 -2.6470000000000002 0 C -2.6470000000000002 2.292 -2.196 4.677 -1.2480000000000002 7.003 C -1.1570000000000003 7.221 -1.0640000000000003 7.4350000000000005 -0.9710000000000002 7.643 L -0.42700000000000016 8.841 L 0.7739999999999999 8.305 C 5.534 6.169 8.16 1.1049999999999995 8.155 -4.383000000000001 C 8.155 -6.678000000000001 7.699999999999999 -9.063 6.76 -11.378 C 6.664 -11.616 6.568 -11.826 6.483 -12.016 L 5.944 -13.234 z" stroke-linecap="round" />
</g>
		<g transform="matrix(1.9599484611507747 0 0 -1.9599484611507743 -51.43120882072617 86.71595971515484)"  >
<path style="stroke: none; stroke-width: 1; stroke-dasharray: none; stroke-linecap: butt; stroke-dashoffset: 0; stroke-linejoin: miter; stroke-miterlimit: 4; fill: rgb(213,104,32); fill-rule: nonzero; opacity: 1;"  paint-order="stroke"  transform=" translate(-0.6194973178770806, 1.0564999999999998)" d="M 0 0 C -0.388 -0.222 -0.604 -0.625 -0.607 -1.059 C -0.607 -1.266 -0.5549999999999999 -1.474 -0.44299999999999995 -1.67 C -0.21599999999999994 -2.061 0.20000000000000007 -2.283 0.6250000000000001 -2.285 C 0.8390000000000001 -2.2830000000000004 1.042 -2.233 1.2280000000000002 -2.1260000000000003 C 1.6290000000000002 -1.8950000000000002 1.8450000000000002 -1.4810000000000003 1.8480000000000003 -1.0590000000000004 C 1.845 -0.848 1.795 -0.643 1.681 -0.445 C 1.451 -0.046 1.044 0.167 0.615 0.17 C 0.41 0.17 0.205 0.118 0.008 0.006 L -0.656 1.148 z M -2.733 -2.996 C -3.083 -2.3890000000000002 -3.255 -1.717 -3.255 -1.059 C -3.258 0.27500000000000013 -2.561 1.5850000000000002 -1.3119999999999998 2.2990000000000004 L -1.3119999999999998 2.298 C -0.7099999999999999 2.6470000000000002 -0.040999999999999925 2.818 0.6150000000000002 2.818 C 1.9490000000000003 2.818 3.2550000000000003 2.12 3.974 0.879 C 4.324 0.271 4.494 -0.399 4.494 -1.059 C 4.496 -2.392 3.797 -3.69 2.558 -4.417 C 1.949 -4.768 1.274 -4.931 0.625 -4.931 C -0.714 -4.931 -2.014 -4.2330000000000005 -2.733 -2.996" stroke-linecap="round" />
</g>
		<g transform="matrix(1.9599484611507747 0 0 -1.9599484611507743 -31.923736665971603 92.63062730390999)"  >
<path style="stroke: none; stroke-width: 1; stroke-dasharray: none; stroke-linecap: butt; stroke-dashoffset: 0; stroke-linejoin: miter; stroke-miterlimit: 4; fill: rgb(213,104,32); fill-rule: nonzero; opacity: 1;"  paint-order="stroke"  transform=" translate(-0.9656509524103742, 1.6738668984634122)" d="M 0 0 C 0.924 0.532 2.105 0.216 2.639 -0.708 C 3.173 -1.633 2.855 -2.813 1.931 -3.347 C 1.006 -3.88 -0.174 -3.564 -0.707 -2.641 C -1.242 -1.716 -0.924 -0.534 0 0" stroke-linecap="round" />
</g>
		<g transform="matrix(1.9599484611507747 0 0 -1.9599484611507743 9.293879607930592 59.023259923017406)"  >
<path style="stroke: none; stroke-width: 1; stroke-dasharray: none; stroke-linecap: butt; stroke-dashoffset: 0; stroke-linejoin: miter; stroke-miterlimit: 4; fill: rgb(213,104,32); fill-rule: nonzero; opacity: 1;"  paint-order="stroke"  transform=" translate(-1.767999999999999, -2.6675)" d="M 0 0 C 4.229 0.006 7.883 1.786 9.764 4.742 C 8.501 5.162 7.42 5.334 6.445 5.334 C 3.228 5.397 0.545 3.268 -3.801 0.475 C -2.516 0.151 -1.237 -0.002 0 0 M 0 -2.648 C -2.208 -2.648 -4.505 -2.23 -6.751 -1.3570000000000002 C -6.986000000000001 -1.2640000000000002 -7.196000000000001 -1.1740000000000002 -7.3740000000000006 -1.1 L -9.833 -0.08200000000000007 L -7.54 1.265 C -2.0149999999999997 4.458 1.2150000000000007 7.912 6.444999999999999 7.983 C 8.004999999999999 7.983 9.667 7.645 11.509 6.926 C 11.736 6.837 11.949 6.746 12.146 6.662 L 11.63 5.444 L 12.146 6.662 L 13.369 6.143 L 12.845 4.919 C 10.74 0.065 5.606 -2.648 0.025 -2.648 Z" stroke-linecap="round" />
</g>
		<g transform="matrix(1.9599484611507747 0 0 -1.9599484611507743 42.19102654380828 69.17873287446997)"  >
<path style="stroke: none; stroke-width: 1; stroke-dasharray: none; stroke-linecap: butt; stroke-dashoffset: 0; stroke-linejoin: miter; stroke-miterlimit: 4; fill: rgb(213,104,32); fill-rule: nonzero; opacity: 1;"  paint-order="stroke"  transform=" translate(0.001000000000000334, -2.319)" d="M 0 0 C 1.279 0.002 2.317 1.038 2.32 2.319 C 2.317 3.598 1.277 4.636 0 4.639 C -1.281 4.639 -2.322 3.601 -2.322 2.317 C -2.322 1.036 -1.284 0 0 0 M -4.97 2.316 L -3.6449999999999996 2.316 L -4.97 2.319 C -4.97 5.061 -2.746 7.284 0 7.287 C 2.742 7.284 4.965 5.063 4.968 2.319 C 4.965 -0.426 2.742 -2.646 0 -2.649 C -2.746 -2.646 -4.97 -0.42600000000000016 -4.97 2.316" stroke-linecap="round" />
</g>
		<g transform="matrix(1.9599484611507747 0 0 -1.9599484611507743 55.88028657071584 37.25274040109295)"  >
<path style="stroke: none; stroke-width: 1; stroke-dasharray: none; stroke-linecap: butt; stroke-dashoffset: 0; stroke-linejoin: miter; stroke-miterlimit: 4; fill: rgb(213,104,32); fill-rule: nonzero; opacity: 1;"  paint-order="stroke"  transform=" translate(-8.465, -10.1395)" d="M 0 0 C -1.976 0.005 -3.676 0.278 -5.38 0.275 L -5.38 1.205 L -5.288 0.278 L -5.284000000000001 0.278 L -5.549 2.912 C -5.5360000000000005 2.912 -5.481000000000001 2.92 -5.380000000000001 2.92 C -3.404000000000001 2.918 -1.705000000000001 2.644 -8.881784197001252e-16 2.647 C 2.039999999999999 2.658 4.124999999999999 2.9789999999999996 7.034999999999999 4.604 C 11.113 6.937 12.189 9.185 13.572 11.884 C 14.902 14.566 16.538999999999998 17.7 21.180999999999997 20.279 L 22.479 17.974 C 18.395 15.637 17.317 13.389 15.936 10.692 C 14.605 8.007 12.969 4.874 8.332 2.295 C 5.106 0.469 2.409 0 0.061 0 Z" stroke-linecap="round" />
</g>
		<g transform="matrix(1.9599484611507747 0 0 -1.9599484611507743 99.28079730990021 27.19154097062156)"  >
<path style="stroke: none; stroke-width: 1; stroke-dasharray: none; stroke-linecap: butt; stroke-dashoffset: 0; stroke-linejoin: miter; stroke-miterlimit: 4; fill: rgb(213,104,32); fill-rule: nonzero; opacity: 1;"  paint-order="stroke"  transform=" translate(-1.846, -1.1214999999999993)" d="M 0 0 C 1.929 -0.461 4.433 -0.591 7.618 -1.101 C 4.872 2.489 0.956 4.495 -2.625 4.486 C -3.616 4.485 -4.582 4.338 -5.504 4.032 C -3.808 1.368 -2.3 0.582 0 0 M 10.071 -4.263 C 5.654 -3.268 2.3609999999999998 -3.259 -0.6029999999999998 -2.577 C -3.5799999999999996 -1.926 -6.196 -0.2839999999999998 -8.23 3.4219999999999997 C -8.359 3.646 -8.471 3.8589999999999995 -8.572000000000001 4.055 L -9.178 5.226 L -8.009 5.836 C -6.319000000000001 6.720000000000001 -4.476000000000001 7.133 -2.625 7.133 C 2.697 7.12 8.082 3.783 11.204 -1.745 C 11.327 -1.9620000000000002 11.432 -2.166 11.529 -2.353 L 10.361 -2.9720000000000004 L 10.648000000000001 -1.6780000000000004 L 10.361 -2.9720000000000004 L 11.529 -2.3530000000000006 L 12.87 -4.890000000000001 z" stroke-linecap="round" />
</g>
		<g transform="matrix(1.9599484611507747 0 0 -1.9599484611507743 72.15079872095902 55.34620061505234)"  >
<path style="stroke: none; stroke-width: 1; stroke-dasharray: none; stroke-linecap: butt; stroke-dashoffset: 0; stroke-linejoin: miter; stroke-miterlimit: 4; fill: rgb(213,104,32); fill-rule: nonzero; opacity: 1;"  paint-order="stroke"  transform=" translate(3.0665000000000013, -3.0885000000000007)" d="M 0 0 C 1.521 0.002 2.969 0.323 4.271 0.979 C 1.354 4.376 -2.592 6.179 -6.145 6.174 C -7.67 6.173 -9.117 5.852 -10.416 5.196 C -7.5 1.797 -3.557 -0.008 0 0 M 0 -2.646 C -4.709 -2.642 -9.607 -0.18699999999999983 -13.035 4.2170000000000005 C -13.18 4.405 -13.316 4.5920000000000005 -13.448 4.775 L -14.216000000000001 5.845000000000001 L -13.152000000000001 6.617000000000001 C -11.089 8.118 -8.637 8.823 -6.145000000000001 8.823 C -1.435 8.815 3.466 6.357 6.883 1.965 C 7.045 1.761 7.182 1.569 7.305 1.399 L 6.232 0.623 L 7.305 1.399 L 8.083 0.325 L 7.006 -0.451 C 4.943 -1.94 2.503 -2.646 0.015 -2.646 Z" stroke-linecap="round" />
</g>
		<g transform="matrix(1.9599484611507747 0 0 -1.9599484611507743 49.341685010482024 87.87740790179333)"  >
<path style="stroke: none; stroke-width: 1; stroke-dasharray: none; stroke-linecap: butt; stroke-dashoffset: 0; stroke-linejoin: miter; stroke-miterlimit: 4; fill: rgb(213,104,32); fill-rule: nonzero; opacity: 1;"  paint-order="stroke"  transform=" translate(-0.8749910717097484, 0.8629911878093299)" d="M 0 0 C -0.235 -0.235 -0.35 -0.535 -0.353 -0.858 C -0.35 -1.175 -0.235 -1.486 0.011 -1.729 C 0.246 -1.967 0.56 -2.087 0.878 -2.09 C 1.197 -2.087 1.504 -1.973 1.735 -1.741 C 1.982 -1.489 2.1 -1.178 2.1 -0.863 C 2.097 -0.547 1.982 -0.24 1.739 0.003 C 1.492 0.25 1.192 0.361 0.872 0.363 C 0.555 0.361 0.248 0.246 0.008 0.006 L -0.93 0.941 Z M 0.878 -4.736 C -0.11499999999999999 -4.736 -1.1099999999999999 -4.354 -1.8609999999999998 -3.6049999999999995 C -2.6159999999999997 -2.8509999999999995 -3.002 -1.8499999999999996 -2.9989999999999997 -0.8579999999999997 C -3.002 0.12300000000000033 -2.627 1.1240000000000003 -1.8649999999999998 1.8780000000000006 L -1.866 1.879 C -1.112 2.63 -0.117 3.013 0.872 3.01 C 1.855 3.013 2.858 2.633 3.613 1.876 C 4.368 1.121 4.749 0.123 4.749 -0.863 C 4.749 -1.853 4.364 -2.843 3.616 -3.605 C 2.865 -4.356 1.868 -4.736 0.889 -4.736 Z" stroke-linecap="round" />
</g>
		<g transform="matrix(1.9599484611507747 0 0 -1.9599484611507743 64.20771559245321 73.94512815303125)"  >
<path style="stroke: none; stroke-width: 1; stroke-dasharray: none; stroke-linecap: butt; stroke-dashoffset: 0; stroke-linejoin: miter; stroke-miterlimit: 4; fill: rgb(213,104,32); fill-rule: nonzero; opacity: 1;"  paint-order="stroke"  transform=" translate(-1.9315, 0.0014982733671926596)" d="M 0 0 C 0 1.066 0.865 1.93 1.935 1.93 C 3 1.932 3.863 1.065 3.863 -0.001 C 3.863 -1.068 3 -1.933 1.935 -1.933 C 0.864 -1.933 0 -1.066 0 0" stroke-linecap="round" />
</g>
		<g transform="matrix(1.9599484611507747 0 0 -1.9599484611507743 57.75703211456306 21.08571352959845)"  >
<path style="stroke: none; stroke-width: 1; stroke-dasharray: none; stroke-linecap: butt; stroke-dashoffset: 0; stroke-linejoin: miter; stroke-miterlimit: 4; fill: rgb(213,104,32); fill-rule: nonzero; opacity: 1;"  paint-order="stroke"  transform=" translate(0.4241515842904837, 8.956500000000002)" d="M 0 0 L 1.062 0.791 z M -2.624 -9.174 C -2.626 -10.850999999999999 -2.452 -12.788 -2.343 -15.047999999999998 C 0.363 -12.251999999999999 1.7839999999999998 -8.765999999999998 1.7759999999999998 -5.591999999999999 C 1.7759999999999998 -4.011999999999999 1.4349999999999998 -2.514999999999999 0.7409999999999999 -1.1819999999999986 C -2.117 -3.7489999999999988 -2.5700000000000003 -5.870999999999999 -2.6240000000000006 -9.174 M -4.906000000000001 -17.901 C -4.934 -14.54 -5.2700000000000005 -11.756 -5.271000000000001 -9.174 C -5.329000000000001 -5.324 -4.313000000000001 -1.7239999999999993 -0.2790000000000008 1.4299999999999997 C -0.0930000000000008 1.5769999999999997 0.08699999999999919 1.7129999999999996 0.25899999999999923 1.8439999999999996 L 1.3209999999999993 2.6499999999999995 L 2.1209999999999996 1.5819999999999994 C 3.6859999999999995 -0.5110000000000006 4.427999999999999 -3.025000000000001 4.424999999999999 -5.5920000000000005 C 4.416999999999999 -10.24 2.047999999999999 -15.087 -2.2310000000000008 -18.521 C -2.4330000000000007 -18.685000000000002 -2.6220000000000008 -18.821 -2.774000000000001 -18.938000000000002 L -4.884 -20.563000000000002 z" stroke-linecap="round" />
</g>
		<g transform="matrix(1.9599484611507747 0 0 -1.9599484611507743 80.95273131409999 -1.9707575524086565)"  >
<path style="stroke: none; stroke-width: 1; stroke-dasharray: none; stroke-linecap: butt; stroke-dashoffset: 0; stroke-linejoin: miter; stroke-miterlimit: 4; fill: rgb(213,104,32); fill-rule: nonzero; opacity: 1;"  paint-order="stroke"  transform=" translate(-0.00050002497968471, -2.3200149874969886)" d="M 0 0 C 0.808 0.003 1.582 0.413 2.008 1.15 C 2.221 1.525 2.319 1.921 2.319 2.315 C 2.319 3.124 1.906 3.9 1.163 4.326 C 0.792 4.542 0.4 4.638 0.008 4.641 C -0.799 4.638 -1.577 4.225 -2.012 3.468 C -2.223 3.11 -2.318 2.722 -2.318 2.323 C -2.318 1.521 -1.9040000000000001 0.7429999999999999 -1.157 0.31099999999999994 L -1.157 0.31099999999999994 C -0.79 0.099 -0.395 0 0 0 M -2.478 -1.983 L -1.818 -0.8350000000000002 L -2.479 -1.983 C -4.07 -1.0630000000000002 -4.970000000000001 0.609 -4.9670000000000005 2.323 C -4.9670000000000005 3.162 -4.7540000000000004 4.029 -4.300000000000001 4.802 C -3.3810000000000007 6.395 -1.7070000000000007 7.289 0.007999999999999119 7.286 C 0.847 7.289 1.705 7.073 2.485 6.622 C 4.077 5.701 4.971 4.029 4.968 2.315 C 4.968 1.473 4.752 0.615 4.304 -0.167 C 3.383 -1.757 1.71 -2.647 0 -2.646 L -0.016 -2.646 C -0.854 -2.646 -1.708 -2.427 -2.478 -1.9829999999999999" stroke-linecap="round" />
</g>
		<g transform="matrix(1.9599484611507747 0 0 -1.9599484611507743 64.36409614360832 -29.00429730233958)"  >
<path style="stroke: none; stroke-width: 1; stroke-dasharray: none; stroke-linecap: butt; stroke-dashoffset: 0; stroke-linejoin: miter; stroke-miterlimit: 4; fill: rgb(213,104,32); fill-rule: nonzero; opacity: 1;"  paint-order="stroke"  transform=" translate(-2.83648809354158, -15.237)" d="M 0 0 C 2.229 3.84 4.677 5.552 4.768 11.611 L 4.768 11.844000000000001 C 4.74 16.393 3.3529999999999998 18.427 1.73 20.931 C 0.09800000000000009 23.39 -1.771 26.316000000000003 -1.7400000000000002 31.473 C -1.7400000000000002 31.549 -1.743 31.654999999999998 -1.7310000000000003 31.791999999999998 L 0.908 31.611 C 0.905 31.598 0.905 31.549 0.905 31.473 C 0.933 26.923 2.32 24.889 3.942 22.384 C 5.575 19.927 7.443 17 7.413 11.844 L 7.413 11.601 C 7.375 4.665 4.11 1.882 2.294 -1.317 Z M 2.293 -1.318 L 2.294 -1.3170000000000002 L 2.296 -1.318 z" stroke-linecap="round" />
</g>
		<g transform="matrix(1.9599484611507747 0 0 -1.9599484611507743 74.76497797844195 -71.51808089307298)"  >
<path style="stroke: none; stroke-width: 1; stroke-dasharray: none; stroke-linecap: butt; stroke-dashoffset: 0; stroke-linejoin: miter; stroke-miterlimit: 4; fill: rgb(213,104,32); fill-rule: nonzero; opacity: 1;"  paint-order="stroke"  transform=" translate(-7.027, -4.458976292934578)" d="M 0 0 C 3.185 0.143 4.618 1.063 6.291 2.803 C 7.637 4.24 8.993 6.324 11.007 8.798 C 5.282 8.052 0.901 4.396 0 0 M -0.836 -2.664 C -1.092 -2.664 -1.327 -2.656 -1.553 -2.645 L -2.87 -2.582 L -2.8120000000000003 -1.2639999999999998 C -2.438 6.102 4.7139999999999995 11.588000000000001 13.154 11.583 C 13.235 11.583 13.31 11.583 13.361 11.58 C 13.613000000000001 11.58 13.841000000000001 11.569 14.045 11.561 L 13.998 10.238 L 14.045 11.561 L 16.924 11.459 L 14.972 9.341 C 11.93 6.045 10.275 3.218 8.227 0.999 C 6.203 -1.242 3.521 -2.71 -0.633 -2.664 C -0.679 -2.664 -0.727 -2.665 -0.771 -2.665 C -0.794 -2.665 -0.8150000000000001 -2.665 -0.8360000000000001 -2.664" stroke-linecap="round" />
</g>
		<g transform="matrix(1.9599484611507747 0 0 -1.9599484611507743 83.95243238493231 -34.83357601549423)"  >
<path style="stroke: none; stroke-width: 1; stroke-dasharray: none; stroke-linecap: butt; stroke-dashoffset: 0; stroke-linejoin: miter; stroke-miterlimit: 4; fill: rgb(213,104,32); fill-rule: nonzero; opacity: 1;"  paint-order="stroke"  transform=" translate(5.468999999999999, 6.696)" d="M 0 0 L 1.32 0.123 z M -10.969 -12.01 C -4.667 -10.827 -0.21999999999999886 -6.226999999999999 0.03500000000000014 -1.395999999999999 C -6.269 -2.581999999999999 -10.717 -7.184999999999999 -10.969 -12.01 M -13.564 -13.676 C -13.611 -13.274000000000001 -13.627 -12.883000000000001 -13.63 -12.503 C -13.590000000000002 -5.6000000000000005 -7.486000000000001 0.2599999999999998 0.47999999999999865 1.359 C 0.7379999999999987 1.397 0.9709999999999986 1.419 1.1849999999999987 1.441 L 2.51 1.578 L 2.636 0.249 C 2.674 -0.131 2.692 -0.514 2.692 -0.9 C 2.6540000000000004 -7.806 -3.4449999999999994 -13.665000000000001 -11.424 -14.765 C -11.661999999999999 -14.797 -11.894 -14.825000000000001 -12.123 -14.847000000000001 L -13.423 -14.97 z" stroke-linecap="round" />
</g>
		<g transform="matrix(1.9599484611507747 0 0 -1.9599484611507743 100.72450064983684 1.187724579088524)"  >
<path style="stroke: none; stroke-width: 1; stroke-dasharray: none; stroke-linecap: butt; stroke-dashoffset: 0; stroke-linejoin: miter; stroke-miterlimit: 4; fill: rgb(213,104,32); fill-rule: nonzero; opacity: 1;"  paint-order="stroke"  transform=" translate(-0.003502705914417259, -1.2270021369791038)" d="M 0 0 C 0.429 0.003 0.84 0.221 1.063 0.604 C 1.179 0.809 1.23 1.019 1.23 1.225 C 1.228 1.654 1.012 2.061 0.62 2.289 C 0.419 2.403 0.218 2.453 0.008 2.453 C -0.419 2.453 -0.829 2.234 -1.064 1.823 C -1.172 1.641 -1.224 1.44 -1.224 1.228 C -1.221 0.805 -1.005 0.393 -0.61 0.162 L -0.61 0.163 C -0.417 0.052 -0.209 0 0 0 M 0 -2.647 C -0.66 -2.647 -1.329 -2.4789999999999996 -1.932 -2.1319999999999997 L -1.27 -0.9849999999999997 L -1.935 -2.1319999999999997 C -3.173 -1.4119999999999997 -3.873 -0.10699999999999976 -3.871 1.2280000000000002 C -3.871 1.8810000000000002 -3.704 2.5620000000000003 -3.352 3.1580000000000004 C -2.635 4.4030000000000005 -1.327 5.103000000000001 0.008000000000000007 5.101000000000001 C 0.661 5.101000000000001 1.335 4.934000000000001 1.941 4.583000000000001 C 3.187 3.864 3.881 2.556 3.878 1.225 C 3.878 0.565 3.706 -0.1 3.36 -0.711 C 2.644 -1.951 1.339 -2.647 0.008 -2.647 Z" stroke-linecap="round" />
</g>
		<g transform="matrix(1.9599484611507747 0 0 -1.9599484611507743 96.09401450633004 -18.651616207034635)"  >
<path style="stroke: none; stroke-width: 1; stroke-dasharray: none; stroke-linecap: butt; stroke-dashoffset: 0; stroke-linejoin: miter; stroke-miterlimit: 4; fill: rgb(213,104,32); fill-rule: nonzero; opacity: 1;"  paint-order="stroke"  transform=" translate(-0.9680476513861422, -1.672680954264272)" d="M 0 0 C -0.923 0.533 -1.238 1.715 -0.704 2.641 C -0.173 3.564 1.01 3.878 1.934 3.345 C 2.857 2.812 3.174 1.631 2.642 0.708 C 2.107 -0.218 0.925 -0.533 0 0" stroke-linecap="round" />
</g>
		<g transform="matrix(1.9599484611507747 0 0 -1.9599484611507743 45.756368789487624 -37.41698408213705)"  >
<path style="stroke: none; stroke-width: 1; stroke-dasharray: none; stroke-linecap: butt; stroke-dashoffset: 0; stroke-linejoin: miter; stroke-miterlimit: 4; fill: rgb(213,104,32); fill-rule: nonzero; opacity: 1;"  paint-order="stroke"  transform=" translate(-1.6364999999999998, -0.061500000000000554)" d="M 0 0 C 1.659 -1.182 3.921 -2.189 6.634 -3.586 C 5.032 2.026 0.666 5.849 -3.837 6.021 C -3.188 2.918 -1.963 1.425 0 0 M 7.823 -7.232 C 4.176 -5.155 1.0450000000000008 -3.9650000000000003 -1.5250000000000004 -2.1640000000000006 C -4.113 -0.37900000000000067 -5.9990000000000006 2.2359999999999998 -6.604 6.434 C -6.644 6.6850000000000005 -6.668 6.908 -6.694 7.105 L -6.872 8.432 L -5.545999999999999 8.595 C -5.098999999999999 8.649000000000001 -4.653 8.674000000000001 -4.2139999999999995 8.674000000000001 C 2.623 8.636 8.486 2.659 9.695 -5.224 C 9.738 -5.488 9.764 -5.718 9.788 -5.903 L 10.145 -8.551 z" stroke-linecap="round" />
</g>
		<g transform="matrix(1.9599484611507747 0 0 -1.9599484611507743 38.72172503959246 -71.11967390484375)"  >
<path style="stroke: none; stroke-width: 1; stroke-dasharray: none; stroke-linecap: butt; stroke-dashoffset: 0; stroke-linejoin: miter; stroke-miterlimit: 4; fill: rgb(213,104,32); fill-rule: nonzero; opacity: 1;"  paint-order="stroke"  transform=" translate(-1.1615016668127862, 2.006497923773832)" d="M 0 0 C -0.744 -0.425 -1.155 -1.203 -1.158 -2.01 C -1.158 -2.405 -1.0599999999999998 -2.798 -0.845 -3.1689999999999996 C -0.418 -3.9109999999999996 0.3580000000000001 -4.326 1.1649999999999998 -4.327999999999999 C 1.5599999999999998 -4.327999999999999 1.9499999999999997 -4.230999999999999 2.319 -4.020999999999999 C 3.066 -3.586999999999999 3.479 -2.806999999999999 3.481 -2.003999999999999 C 3.481 -1.605999999999999 3.384 -1.2169999999999992 3.1759999999999997 -0.8509999999999991 C 2.74 -0.098 1.962 0.311 1.157 0.314 C 0.765 0.314 0.375 0.216 0 0 M -3.139 -4.493 C -3.5879999999999996 -3.7150000000000003 -3.807 -2.8530000000000006 -3.807 -2.0100000000000002 C -3.807 -0.29700000000000015 -2.915 1.38 -1.322 2.294 C -0.545 2.744 0.31399999999999983 2.962 1.157 2.962 C 2.87 2.965 4.542 2.068 5.465 0.475 C 5.917 -0.305 6.13 -1.164 6.13 -2.004 C 6.132 -3.717 5.234 -5.387 3.649 -6.309 L 2.985 -5.164 L 3.647 -6.312 C 2.868 -6.759 2.008 -6.975 1.165 -6.975 C -0.548 -6.976999999999999 -2.222 -6.082999999999999 -3.1390000000000002 -4.492999999999999" stroke-linecap="round" />
</g>
		<g transform="matrix(1.9599484611507747 0 0 -1.9599484611507743 4.576675651633138 -66.81719097362921)"  >
<path style="stroke: none; stroke-width: 1; stroke-dasharray: none; stroke-linecap: butt; stroke-dashoffset: 0; stroke-linejoin: miter; stroke-miterlimit: 4; fill: rgb(213,104,32); fill-rule: nonzero; opacity: 1;"  paint-order="stroke"  transform=" translate(5.334999999999999, 1.6244999999999994)" d="M 0 0 C -3.047 1.788 -5.2 2.096 -7.365 2.11 C -8.814 2.11 -10.284 1.9409999999999998 -11.93 1.938 C -14.394 1.927 -17.24 2.385 -20.647 4.413 L -19.301 6.692 C -16.253 4.907 -14.097999999999999 4.598000000000001 -11.929999999999998 4.584 C -10.479999999999999 4.584 -9.013999999999998 4.752999999999999 -7.3649999999999975 4.757 C -4.903 4.768 -2.061 4.31 1.35 2.282 C 7.333 -1.221 8.109 -5.44 9.974 -8.614 L 9.977 -8.614 L 7.685 -9.941 C 5.474 -6.095 5.215 -3.116 0 0" stroke-linecap="round" />
</g>
		<g transform="matrix(1.9599484611507747 0 0 -1.9599484611507743 -26.006968030509256 -100.5165448146557)"  >
<path style="stroke: none; stroke-width: 1; stroke-dasharray: none; stroke-linecap: butt; stroke-dashoffset: 0; stroke-linejoin: miter; stroke-miterlimit: 4; fill: rgb(213,104,32); fill-rule: nonzero; opacity: 1;"  paint-order="stroke"  transform=" translate(-2.0649898416678485, 8.536999999999999)" d="M 0 0 L 1.262 0.395 z M -0.177 -8.712 C -0.172 -12.015 0.9989999999999999 -14.94 3.136 -16.845 C 4.001 -15.200999999999999 4.302 -13.915 4.304 -12.698999999999998 C 4.364 -10.153999999999998 2.7310000000000003 -7.408999999999998 1.0180000000000002 -2.9069999999999983 C 0.2110000000000002 -4.8439999999999985 -0.17699999999999982 -6.831999999999998 -0.17699999999999982 -8.711999999999998 M 2.817 -19.912999999999997 C -0.9139999999999997 -17.525 -2.832 -13.252999999999997 -2.8229999999999995 -8.711999999999996 C -2.8229999999999995 -5.655999999999996 -1.9719999999999995 -2.4439999999999964 -0.2149999999999994 0.5220000000000038 C -0.08999999999999941 0.7340000000000038 0.032000000000000584 0.9220000000000038 0.13800000000000057 1.0940000000000039 L 1.661 3.549 L 2.526 0.792 C 4.345 -5.158 6.882 -8.359 6.952999999999999 -12.699 C 6.9559999999999995 -14.632 6.356999999999999 -16.649 5.0169999999999995 -18.906 C 4.8919999999999995 -19.121 4.765999999999999 -19.323 4.643999999999999 -19.512999999999998 L 3.9289999999999994 -20.622999999999998 z" stroke-linecap="round" />
</g>
		<g transform="matrix(1.9599484611507747 0 0 -1.9599484611507743 11.773410392603239 -90.14253760978463)"  >
<path style="stroke: none; stroke-width: 1; stroke-dasharray: none; stroke-linecap: butt; stroke-dashoffset: 0; stroke-linejoin: miter; stroke-miterlimit: 4; fill: rgb(213,104,32); fill-rule: nonzero; opacity: 1;"  paint-order="stroke"  transform=" translate(-3.0604999930970314, 8.078500000000002)" d="M 0 0 L 0.542 1.21 z M 0.308 -5.886 C 0.313 -10.025 2.025 -13.605 4.906 -15.495999999999999 C 5.521 -13.738999999999999 5.813 -11.964999999999998 5.813 -10.27 C 5.809 -6.133 4.092 -2.551 1.217 -0.664 C 0.599 -2.42 0.305 -4.192 0.308 -5.886 M 5.039 -18.576 C 0.2779999999999996 -16.435000000000002 -2.348 -11.374 -2.34 -5.886000000000001 C -2.34 -3.593000000000001 -1.8889999999999998 -1.2090000000000014 -0.9449999999999998 1.1039999999999992 C -0.8509999999999999 1.3409999999999993 -0.7549999999999999 1.5559999999999992 -0.6639999999999998 1.7549999999999992 L -0.12299999999999978 2.9559999999999995 L 1.0830000000000002 2.4169999999999994 C 5.841 0.2779999999999996 8.469000000000001 -4.783000000000001 8.461 -10.27 C 8.461 -12.561 8.009 -14.947 7.063000000000001 -17.271 C 6.973000000000001 -17.492 6.882000000000001 -17.704 6.7860000000000005 -17.914 L 6.237 -19.113000000000003 z" stroke-linecap="round" />
</g>
		<g transform="matrix(1.9599484611507747 0 0 -1.9599484611507743 51.34239017216953 -86.65972196855625)"  >
<path style="stroke: none; stroke-width: 1; stroke-dasharray: none; stroke-linecap: butt; stroke-dashoffset: 0; stroke-linejoin: miter; stroke-miterlimit: 4; fill: rgb(213,104,32); fill-rule: nonzero; opacity: 1;"  paint-order="stroke"  transform=" translate(-0.6144858534831585, 1.062993482360978)" d="M 0 0 C -0.393 -0.226 -0.611 -0.639 -0.614 -1.067 C -0.611 -1.269 -0.563 -1.4769999999999999 -0.442 -1.681 C -0.221 -2.068 0.19 -2.29 0.619 -2.29 C 0.833 -2.29 1.037 -2.238 1.236 -2.126 C 1.624 -1.896 1.839 -1.4869999999999999 1.843 -1.0639999999999998 C 1.839 -0.852 1.789 -0.647 1.678 -0.453 C 1.445 -0.054 1.034 0.164 0.607 0.167 C 0.403 0.164 0.202 0.114 0 0 M 0.619 -4.937 C -0.718 -4.939 -2.0250000000000004 -4.244000000000001 -2.7380000000000004 -3.0020000000000002 C -3.0870000000000006 -2.399 -3.2620000000000005 -1.7270000000000003 -3.2590000000000003 -1.0670000000000002 C -3.2620000000000005 0.2699999999999998 -2.5660000000000003 1.577 -1.3230000000000004 2.292 C -0.7180000000000004 2.642 -0.046000000000000485 2.8129999999999997 0.6069999999999995 2.811 C 1.945 2.813 3.248 2.115 3.971 0.873 C 4.322 0.265 4.488 -0.407 4.488 -1.064 C 4.491 -2.399 3.793 -3.701 2.558 -4.418 L 1.8949999999999998 -3.274 L 2.5509999999999997 -4.4239999999999995 C 1.951 -4.767 1.285 -4.937 0.635 -4.937 Z" stroke-linecap="round" />
</g>
		<g transform="matrix(1.9599484611507747 0 0 -1.9599484611507743 31.842451057636538 -92.56173376721887)"  >
<path style="stroke: none; stroke-width: 1; stroke-dasharray: none; stroke-linecap: butt; stroke-dashoffset: 0; stroke-linejoin: miter; stroke-miterlimit: 4; fill: rgb(213,104,32); fill-rule: nonzero; opacity: 1;"  paint-order="stroke"  transform=" translate(0.9655242921160974, -1.6734162105465613)" d="M 0 0 C -0.923 -0.534 -2.104 -0.215 -2.639 0.71 C -3.173 1.632 -2.854 2.813 -1.93 3.346 C -1.006 3.88 0.175 3.564 0.707 2.641 C 1.242 1.716 0.924 0.534 0 0" stroke-linecap="round" />
</g>
</g>
</g>
<g transform="matrix(1.9211538461538462 0 0 1.9211538461538462 640 730.6592466910416)" id="text-logo"  >
<g style=""  paint-order="stroke"   >
		<g transform="matrix(1 0 0 1 0 0)" id="text-logo-path-0"  >
<path style="stroke: none; stroke-width: 0; stroke-dasharray: none; stroke-linecap: butt; stroke-dashoffset: 0; stroke-linejoin: miter; stroke-miterlimit: 4; fill: rgb(213,104,32); fill-rule: nonzero; opacity: 1;"  paint-order="stroke"  transform=" translate(-163.33, 18.2)" d="M 21.16 0.31 C 26.31 0.31 30.78 -2.03 34.32 -6.29 L 33.12 -7.44 C 29.74 -3.22 25.69 -1.25 21.16 -1.25 C 14.25 -1.25 9.57 -7.75 9.57 -18.2 C 9.57 -28.65 14.25 -35.15 21.68 -35.15 C 26.21 -35.15 31.72 -32.55 29.85 -31.04 C 29.17 -30.52 28.7 -29.69 28.7 -28.81 C 28.7 -27.2 29.9 -26 31.51 -26 C 33.02 -26 34.42 -27.35 34.22 -29.38 C 33.7 -33.02 27.92 -36.71 21.68 -36.71 C 11.02 -36.71 2.08 -29.54 2.08 -18.2 C 2.08 -6.86 11.02 0.31 21.16 0.31 Z M 74.1 0.26 L 74.1 -1.3 C 68.59 -1.3 69.21 -12.01 60.37 -16.07 C 66.61 -16.43 70.98 -20.85 70.98 -26.36 C 70.98 -31.88 66.3 -36.4 59.59 -36.4 L 41.55 -36.4 L 41.55 -35.36 C 43.11 -35.36 44.15 -34.94 44.15 -33.28 L 44.15 -3.12 C 44.15 -1.46 43.11 -1.04 41.55 -1.04 L 41.55 0 L 54.03 0 L 54.03 -1.04 C 52.47 -1.04 51.43 -1.46 51.43 -3.12 L 51.43 -15.03 C 51.43 -15.65 51.84 -16.07 52.47 -16.07 L 52.47 -16.07 C 61.05 -16.07 57.77 0.26 74.1 0.26 Z M 54.7 -17.63 L 52.47 -17.63 C 51.84 -17.63 51.43 -18.04 51.43 -18.67 L 51.43 -33.8 C 51.43 -34.42 51.84 -34.84 52.47 -34.84 L 54.7 -34.84 C 61.88 -34.84 63.49 -30.78 63.49 -26.31 C 63.49 -21.68 61.88 -17.63 54.7 -17.63 Z M 103.69 -1.04 L 103.69 0 L 115.91 0 L 115.91 -1.04 C 114.97 -1.04 113.78 -1.35 113.1 -2.86 L 98.85 -36.4 L 95.52 -36.4 L 95.52 -34.84 C 95.52 -34.22 95.37 -33.44 95.16 -32.81 L 83.25 -2.91 C 82.63 -1.35 81.17 -1.04 79.77 -1.04 L 79.77 0 L 87.05 0 L 87.05 -1.04 C 85.02 -1.04 84.19 -1.35 84.81 -2.91 L 88.24 -11.49 C 88.45 -12.12 89.02 -12.48 89.65 -12.48 L 100.78 -12.48 C 101.4 -12.48 101.97 -12.12 102.23 -11.54 L 105.87 -2.86 C 106.5 -1.35 105.72 -1.04 103.69 -1.04 Z M 89.6 -15.03 L 94.64 -27.51 C 94.85 -28.13 95.16 -28.13 95.42 -27.56 L 100.72 -14.98 C 100.98 -14.4 100.72 -14.04 100.1 -14.04 L 90.27 -14.04 C 89.65 -14.04 89.39 -14.4 89.6 -15.03 Z M 122.62 -1.04 L 122.62 0 L 135.1 0 L 135.1 -1.04 C 133.54 -1.04 132.5 -1.46 132.5 -3.12 L 132.5 -17.16 C 132.5 -17.78 132.91 -18.2 133.54 -18.2 L 139.52 -18.2 C 141.18 -18.2 141.6 -17.16 141.6 -15.6 L 142.64 -15.6 L 142.64 -22.36 L 141.6 -22.36 C 141.6 -20.8 141.18 -19.76 139.52 -19.76 L 133.54 -19.76 C 132.91 -19.76 132.5 -20.18 132.5 -20.8 L 132.5 -33.8 C 132.5 -34.42 132.91 -34.84 133.54 -34.84 L 144.2 -34.84 C 145.86 -34.84 146.54 -33.12 146.95 -30.84 L 147.94 -30.99 L 147.21 -35.62 L 147.06 -36.4 L 122.62 -36.4 L 122.62 -35.36 C 124.18 -35.36 125.22 -34.94 125.22 -33.28 L 125.22 -3.12 C 125.22 -1.46 124.18 -1.04 122.62 -1.04 Z M 162.55 0 L 175.03 0 L 175.03 -1.04 C 173.47 -1.04 172.43 -1.46 172.43 -3.12 L 172.43 -35.88 C 172.43 -35.26 172.85 -34.84 173.47 -34.84 L 179.19 -34.84 C 180.86 -34.84 181.53 -33.12 181.95 -30.84 L 182.94 -30.99 L 182.21 -35.62 L 182.05 -36.4 L 155.53 -36.4 L 155.38 -35.62 L 154.65 -30.99 L 155.64 -30.84 C 156.05 -33.12 156.73 -34.84 158.39 -34.84 L 164.11 -34.84 C 164.74 -34.84 165.15 -35.26 165.15 -35.88 L 165.15 -3.12 C 165.15 -1.46 164.11 -1.04 162.55 -1.04 Z M 206.13 0.31 C 216.27 0.31 225.16 -6.86 225.16 -18.2 C 225.16 -29.54 216.27 -36.71 206.13 -36.71 C 195.99 -36.71 187.04 -29.54 187.04 -18.2 C 187.04 -6.86 195.99 0.31 206.13 0.31 Z M 207.64 -1.25 C 200.72 -1.25 195.47 -7.75 194.53 -18.2 C 193.6 -28.65 197.7 -35.15 204.62 -35.15 C 211.54 -35.15 216.74 -28.65 217.67 -18.2 C 218.61 -7.75 214.55 -1.25 207.64 -1.25 Z M 232.91 -1.04 L 232.91 0 L 257.61 0 L 257.76 -0.78 L 258.49 -5.41 L 257.5 -5.56 C 257.09 -3.28 256.41 -1.56 254.75 -1.56 L 243.83 -1.56 C 243.2 -1.56 242.79 -1.98 242.79 -2.6 L 242.79 -33.28 C 242.79 -34.94 243.83 -35.36 245.39 -35.36 L 245.39 -36.4 L 232.91 -36.4 L 232.91 -35.36 C 234.47 -35.36 235.51 -34.94 235.51 -33.28 L 235.51 -3.12 C 235.51 -1.46 234.47 -1.04 232.91 -1.04 Z M 266.24 0 L 278.72 0 L 278.72 -1.04 C 277.16 -1.04 276.12 -1.46 276.12 -3.12 L 276.12 -33.28 C 276.12 -34.94 277.16 -35.36 278.72 -35.36 L 278.72 -36.4 L 266.24 -36.4 L 266.24 -35.36 C 267.8 -35.36 268.84 -34.94 268.84 -33.28 L 268.84 -3.12 C 268.84 -1.46 267.8 -1.04 266.24 -1.04 Z M 305.55 0.31 C 315.69 0.31 324.58 -6.86 324.58 -18.2 C 324.58 -29.54 315.69 -36.71 305.55 -36.71 C 295.41 -36.71 286.47 -29.54 286.47 -18.2 C 286.47 -6.86 295.41 0.31 305.55 0.31 Z M 307.06 -1.25 C 300.14 -1.25 294.89 -7.75 293.96 -18.2 C 293.02 -28.65 297.13 -35.15 304.04 -35.15 C 310.96 -35.15 316.16 -28.65 317.1 -18.2 C 318.03 -7.75 313.98 -1.25 307.06 -1.25 Z" stroke-linecap="round" />
</g>
</g>
</g>
<g transform="matrix(1.9211538461538462 0 0 1.9211538461538462 640.04995 420.3351206502083)" id="tagline-927cc09c-9b7a-4fc4-ad78-604ed832bbe6-logo"  >
<g style=""  paint-order="stroke"   >
		<g transform="matrix(1 0 0 1 0 0)" id="tagline-927cc09c-9b7a-4fc4-ad78-604ed832bbe6-logo-path-0"  >
<path style="stroke: rgb(255,255,255); stroke-width: 0; stroke-dasharray: none; stroke-linecap: butt; stroke-dashoffset: 0; stroke-linejoin: miter; stroke-miterlimit: 4; fill: rgb(213,104,32); fill-rule: nonzero; opacity: 1;"  paint-order="stroke"  transform=" translate(-36.555, 18.2)" d="M 24.44 -1.04 L 24.44 0 L 36.92 0 L 36.92 -1.04 C 35.36 -1.04 34.32 -1.46 34.32 -3.12 L 34.32 -33.28 C 34.32 -34.94 35.36 -35.36 36.92 -35.36 L 36.92 -36.4 L 24.44 -36.4 L 24.44 -35.36 C 26 -35.36 27.04 -34.94 27.04 -33.28 L 27.04 -20.28 C 27.04 -19.66 26.62 -19.24 26 -19.24 L 13 -19.24 C 12.38 -19.24 11.96 -19.66 11.96 -20.28 L 11.96 -33.28 C 11.96 -34.94 13 -35.36 14.56 -35.36 L 14.56 -36.4 L 2.08 -36.4 L 2.08 -35.36 C 3.64 -35.36 4.68 -34.94 4.68 -33.28 L 4.68 -3.12 C 4.68 -1.46 3.64 -1.04 2.08 -1.04 L 2.08 0 L 14.56 0 L 14.56 -1.04 C 13 -1.04 11.96 -1.46 11.96 -3.12 L 11.96 -16.64 C 11.96 -17.26 12.38 -17.68 13 -17.68 L 26 -17.68 C 26.62 -17.68 27.04 -17.26 27.04 -16.64 L 27.04 -3.12 C 27.04 -1.46 26 -1.04 24.44 -1.04 Z M 54.76 -17.63 L 52 -17.63 C 51.38 -17.63 50.96 -18.04 50.96 -18.67 L 50.96 -33.8 C 50.96 -34.42 51.38 -34.84 52 -34.84 L 54.76 -34.84 C 61.93 -34.84 63.54 -30.78 63.54 -26.31 C 63.54 -21.68 61.93 -17.63 54.76 -17.63 Z M 41.08 -1.04 L 41.08 0 L 53.56 0 L 53.56 -1.04 C 52 -1.04 50.96 -1.46 50.96 -3.12 L 50.96 -15.03 C 50.96 -15.65 51.38 -16.07 52 -16.07 L 59.64 -16.07 C 66.35 -16.07 71.03 -20.59 71.03 -26.36 C 71.03 -31.88 66.35 -36.4 59.64 -36.4 L 41.08 -36.4 L 41.08 -35.36 C 42.64 -35.36 43.68 -34.94 43.68 -33.28 L 43.68 -3.12 C 43.68 -1.46 42.64 -1.04 41.08 -1.04 Z" stroke-linecap="round" />
</g>
</g>
</g>
<g transform="matrix(1.9211538461538462 0 0 1.9211538461538462 640.0999000000002 818.367420774583)" id="tagline-34d823e4-a194-4794-a005-96c0c3af03b6-logo"  >
<g style=""  paint-order="stroke"   >
		<g transform="matrix(1 0 0 1 0 0)" id="tagline-34d823e4-a194-4794-a005-96c0c3af03b6-logo-path-0"  >
<path style="stroke: none; stroke-width: 0; stroke-dasharray: none; stroke-linecap: butt; stroke-dashoffset: 0; stroke-linejoin: miter; stroke-miterlimit: 4; fill: rgb(213,104,32); fill-rule: nonzero; opacity: 1;"  paint-order="stroke"  transform=" translate(-260.415, 8.71)" d="M 10.14 0 C 13.34 0 15.73 -2.16 15.73 -4.99 C 15.73 -7.18 14.35 -8.5 12.17 -8.94 C 13.88 -9.57 14.95 -10.87 14.95 -12.77 C 14.95 -15.37 12.92 -17.32 9.88 -17.42 L 1.3 -17.42 L 1.3 0 Z M 10.01 -1.82 L 3.38 -1.82 L 3.38 -8.29 L 10.27 -8.29 C 12.38 -8.29 13.78 -6.99 13.78 -4.99 C 13.78 -3.04 12.38 -1.82 10.01 -1.82 Z M 10.09 -9.85 L 3.38 -9.85 L 3.38 -15.6 L 9.49 -15.6 C 11.67 -15.6 13 -14.64 13 -12.77 C 13 -11 11.91 -10.01 10.09 -9.85 Z M 42.43 -17.42 L 42.43 -7.07 C 42.43 -3.9 40.07 -1.69 37.26 -1.69 C 34.24 -1.69 32.03 -3.98 32.03 -7.07 L 32.03 -17.42 L 29.95 -17.42 L 29.95 -7.07 C 29.95 -4.39 31.38 -2.05 33.62 -0.73 C 34.74 -0.08 35.93 0.26 37.26 0.26 C 39.86 0.26 42.25 -1.17 43.55 -3.41 C 44.2 -4.52 44.51 -5.75 44.51 -7.07 L 44.51 -17.42 Z M 60.81 0 L 60.81 -17.42 L 58.73 -17.42 L 58.73 0 Z M 75.04 0 L 87.52 0 L 87.52 -1.82 L 77.12 -1.82 L 77.12 -17.42 L 75.04 -17.42 Z M 108.55 0 C 111.75 0 114.56 -1.69 116.12 -4.37 C 116.9 -5.69 117.29 -7.15 117.29 -8.71 C 117.29 -11.83 115.65 -14.66 112.97 -16.25 C 111.64 -17.03 110.16 -17.42 108.55 -17.42 L 101.74 -17.42 L 101.74 0 Z M 108.55 -1.85 L 103.82 -1.85 L 103.82 -15.6 L 108.55 -15.6 C 110.94 -15.6 113.13 -14.27 114.32 -12.17 C 114.92 -11.1 115.21 -9.96 115.21 -8.71 C 115.21 -4.89 112.27 -1.85 108.55 -1.85 Z M 157.33 -6.71 L 157.53 -7.02 L 164.27 -17.42 L 161.77 -17.42 L 156.29 -8.94 L 150.83 -17.42 L 148.33 -17.42 L 155.04 -7.02 L 155.25 -6.71 L 155.25 0 L 157.33 0 Z M 187.54 0.29 C 190.87 0.29 193.8 -1.48 195.39 -4.24 C 196.2 -5.62 196.59 -7.1 196.59 -8.71 C 196.59 -11.93 194.87 -14.85 192.09 -16.48 C 190.71 -17.29 189.18 -17.71 187.54 -17.71 C 184.21 -17.71 181.27 -15.96 179.69 -13.21 C 178.88 -11.83 178.49 -10.32 178.49 -8.71 C 178.49 -5.49 180.21 -2.57 182.99 -0.94 C 184.37 -0.13 185.9 0.29 187.54 0.29 Z M 187.54 -1.69 C 185.02 -1.69 182.75 -3.02 181.51 -5.17 C 180.88 -6.24 180.57 -7.44 180.57 -8.71 C 180.57 -11.28 181.9 -13.55 184.05 -14.82 C 185.12 -15.44 186.29 -15.76 187.54 -15.76 C 190.06 -15.76 192.32 -14.4 193.57 -12.25 C 194.19 -11.18 194.51 -9.98 194.51 -8.71 C 194.51 -6.14 193.18 -3.87 191.02 -2.63 C 189.96 -2 188.79 -1.69 187.54 -1.69 Z M 223.29 -17.42 L 223.29 -7.07 C 223.29 -3.9 220.92 -1.69 218.11 -1.69 C 215.1 -1.69 212.89 -3.98 212.89 -7.07 L 212.89 -17.42 L 210.81 -17.42 L 210.81 -7.07 C 210.81 -4.39 212.24 -2.05 214.47 -0.73 C 215.59 -0.08 216.79 0.26 218.11 0.26 C 220.71 0.26 223.11 -1.17 224.41 -3.41 C 225.06 -4.52 225.37 -5.75 225.37 -7.07 L 225.37 -17.42 Z M 241.67 0 L 241.67 -7.25 L 246.69 -7.25 L 251.24 0 L 253.68 0 L 249.11 -7.33 C 251.63 -7.75 253.5 -9.8 253.5 -12.38 C 253.5 -15.21 251.13 -17.42 248.17 -17.42 L 239.59 -17.42 L 239.59 0 Z M 248.17 -9.05 L 241.67 -9.07 L 241.67 -15.6 L 248.04 -15.6 C 250.15 -15.6 251.55 -14.33 251.55 -12.38 C 251.55 -10.4 250.22 -9.1 248.17 -9.05 Z M 286.81 0 L 286.81 -6.76 L 293.31 -6.76 C 296.3 -6.76 298.64 -9.1 298.64 -12.09 C 298.64 -15.08 296.3 -17.42 293.31 -17.42 L 284.73 -17.42 L 284.73 0 Z M 293.18 -8.58 L 286.81 -8.58 L 286.81 -15.6 L 293.18 -15.6 C 295.28 -15.6 296.69 -14.2 296.69 -12.09 C 296.69 -9.98 295.28 -8.58 293.18 -8.58 Z M 321.91 0.29 C 325.23 0.29 328.17 -1.48 329.76 -4.24 C 330.56 -5.62 330.95 -7.1 330.95 -8.71 C 330.95 -11.93 329.24 -14.85 326.46 -16.48 C 325.08 -17.29 323.54 -17.71 321.91 -17.71 C 318.58 -17.71 315.64 -15.96 314.05 -13.21 C 313.25 -11.83 312.86 -10.32 312.86 -8.71 C 312.86 -5.49 314.57 -2.57 317.36 -0.94 C 318.73 -0.13 320.27 0.29 321.91 0.29 Z M 321.91 -1.69 C 319.38 -1.69 317.12 -3.02 315.87 -5.17 C 315.25 -6.24 314.94 -7.44 314.94 -8.71 C 314.94 -11.28 316.26 -13.55 318.42 -14.82 C 319.49 -15.44 320.66 -15.76 321.91 -15.76 C 324.43 -15.76 326.69 -14.4 327.94 -12.25 C 328.56 -11.18 328.87 -9.98 328.87 -8.71 C 328.87 -6.14 327.55 -3.87 325.39 -2.63 C 324.32 -2 323.15 -1.69 321.91 -1.69 Z M 347.26 0 L 347.26 -7.25 L 352.27 -7.25 L 356.82 0 L 359.27 0 L 354.69 -7.33 C 357.21 -7.75 359.09 -9.8 359.09 -12.38 C 359.09 -15.21 356.72 -17.42 353.76 -17.42 L 345.18 -17.42 L 345.18 0 Z M 353.76 -9.05 L 347.26 -9.07 L 347.26 -15.6 L 353.63 -15.6 C 355.73 -15.6 357.14 -14.33 357.14 -12.38 C 357.14 -10.4 355.81 -9.1 353.76 -9.05 Z M 380.25 0 L 380.25 -15.6 L 386.49 -15.6 L 386.49 -17.42 L 371.93 -17.42 L 371.93 -15.6 L 378.17 -15.6 L 378.17 0 Z M 402.79 0 L 402.79 -7.8 L 411.63 -7.8 L 411.63 -9.62 L 402.79 -9.62 L 402.79 -15.6 L 413.19 -15.6 L 413.19 -17.42 L 400.71 -17.42 L 400.71 0 Z M 435.16 0.29 C 438.49 0.29 441.43 -1.48 443.01 -4.24 C 443.82 -5.62 444.21 -7.1 444.21 -8.71 C 444.21 -11.93 442.49 -14.85 439.71 -16.48 C 438.33 -17.29 436.8 -17.71 435.16 -17.71 C 431.83 -17.71 428.9 -15.96 427.31 -13.21 C 426.5 -11.83 426.11 -10.32 426.11 -8.71 C 426.11 -5.49 427.83 -2.57 430.61 -0.94 C 431.99 -0.13 433.52 0.29 435.16 0.29 Z M 435.16 -1.69 C 432.64 -1.69 430.38 -3.02 429.13 -5.17 C 428.51 -6.24 428.19 -7.44 428.19 -8.71 C 428.19 -11.28 429.52 -13.55 431.68 -14.82 C 432.74 -15.44 433.91 -15.76 435.16 -15.76 C 437.68 -15.76 439.95 -14.4 441.19 -12.25 C 441.82 -11.18 442.13 -9.98 442.13 -8.71 C 442.13 -6.14 440.8 -3.87 438.65 -2.63 C 437.58 -2 436.41 -1.69 435.16 -1.69 Z M 458.43 0 L 470.91 0 L 470.91 -1.82 L 460.51 -1.82 L 460.51 -17.42 L 458.43 -17.42 Z M 487.21 0 L 487.21 -17.42 L 485.13 -17.42 L 485.13 0 Z M 510.48 0.29 C 513.81 0.29 516.75 -1.48 518.34 -4.24 C 519.14 -5.62 519.53 -7.1 519.53 -8.71 C 519.53 -11.93 517.82 -14.85 515.03 -16.48 C 513.66 -17.29 512.12 -17.71 510.48 -17.71 C 507.16 -17.71 504.22 -15.96 502.63 -13.21 C 501.83 -11.83 501.44 -10.32 501.44 -8.71 C 501.44 -5.49 503.15 -2.57 505.93 -0.94 C 507.31 -0.13 508.85 0.29 510.48 0.29 Z M 510.48 -1.69 C 507.96 -1.69 505.7 -3.02 504.45 -5.17 C 503.83 -6.24 503.52 -7.44 503.52 -8.71 C 503.52 -11.28 504.84 -13.55 507 -14.82 C 508.07 -15.44 509.24 -15.76 510.48 -15.76 C 513.01 -15.76 515.27 -14.4 516.52 -12.25 C 517.14 -11.18 517.45 -9.98 517.45 -8.71 C 517.45 -6.14 516.13 -3.87 513.97 -2.63 C 512.9 -2 511.73 -1.69 510.48 -1.69 Z" stroke-linecap="round" />
</g>
</g>
</g>
</svg>